<svg xmlns="http://www.w3.org/2000/svg" xmlns:xlink="http://www.w3.org/1999/xlink" viewBox="0 0 437.17844 119.05518">
  <defs>
    <style>
      .cls-1 {
        fill: none;
      }

      .cls-2 {
        fill: #d37db2;
      }

      .cls-3 {
        fill: #b8dcf5;
      }

      .cls-4 {
        fill: #4677a2;
      }

      .cls-5 {
        fill: #1d1d1b;
      }
    </style>
    <symbol id="Isotyp_Positiv_4c_BlackDragon" data-name="Isotyp_Positiv_4c_BlackDragon" viewBox="0 0 134.635 119.055">
      <g>
        <polygon class="cls-1" points="108.547 73.68 108.547 73.68 108.547 73.68 108.547 73.68"/>
        <polygon class="cls-1" points="117.595 72.61 117.593 72.619 117.595 72.61 117.595 72.61"/>
        <path class="cls-1" d="M80.53406,74.04614l.06177-.03833-.06183.03833Z"/>
        <path d="M117.20148,72.6958c.12988-.02759.262-.04785.39154-.07666l.00189-.009C117.46381,72.63916,117.33215,72.666,117.20148,72.6958Z"/>
        <path d="M115.42828,73.04346c-.04351.00757-.08722.0144-.13079.02173C115.34106,73.05786,115.38477,73.051,115.42828,73.04346Z"/>
        <path d="M113.33093,73.34717c-.12414.01489-.24811.03076-.37243.04468C113.08289,73.37769,113.20685,73.3623,113.33093,73.34717Z"/>
        <path d="M118.33148,68.44922q-.96367.03039-1.93469.019c.17541.00195.35156.01026.52667.01026C117.38879,68.47852,117.86017,68.4646,118.33148,68.44922Z"/>
        <path d="M112.45679,68.2478q.75083.07434,1.50213.12525C113.45935,68.34058,112.95837,68.29712,112.45679,68.2478Z"/>
        <path d="M114.45422,68.4021q.83524.04578,1.66779.06079C115.56769,68.45337,115.01154,68.43213,114.45422,68.4021Z"/>
        <path d="M109.99866,67.94336c.63708.09863,1.2771.18066,1.91833.252C111.27887,68.12476,110.63934,68.04224,109.99866,67.94336Z"/>
        <path d="M108.54688,73.68042c.049-.00073.09722-.00513.14617-.0061-.04864.001-.09735.00464-.146.00537Z"/>
        <path d="M111.21576,73.552c-.17072.01245-.34094.029-.51178.0398C110.87512,73.58081,111.045,73.5647,111.21576,73.552Z"/>
        <polygon class="cls-2" points="70.124 54.37 70.124 54.37 70.124 54.37 70.131 54.367 70.124 54.37"/>
        <path class="cls-2" d="M70.124,54.37036l.01386-.00635-.0072.00318Z"/>
        <path d="M70.13068,54.36719l.0072-.00318.00567-.00268Z"/>
        <path d="M112.9585,73.39185c-.578.06567-1.15955.11669-1.74274.16015Q112.08908,73.48828,112.9585,73.39185Z"/>
        <path d="M110.704,73.5918q-1.001.063-2.01093.08252Q109.69913,73.65527,110.704,73.5918Z"/>
        <path d="M111.917,68.19531c.18024.02.3598.03467.5398.05249C112.27686,68.23,112.09674,68.21533,111.917,68.19531Z"/>
        <path d="M113.95892,68.37305c.16529.01074.33033.02.4953.029C114.28906,68.39307,114.12408,68.384,113.95892,68.37305Z"/>
        <path d="M116.39679,68.46826c-.09149-.00122-.18317-.0039-.27478-.00537C116.21356,68.46436,116.3053,68.46729,116.39679,68.46826Z"/>
        <path d="M115.29749,73.06519c-.65143.10913-1.30756.20141-1.96656.282Q114.31843,73.22815,115.29749,73.06519Z"/>
        <path d="M116.16077,72.92285c.35052-.06592.695-.14795,1.04071-.227-.5882.12549-1.17792.24609-1.7732.34766C115.67224,73.0022,115.91785,72.96851,116.16077,72.92285Z"/>
        <g>
          <path d="M107.63922,76.52686A51.04278,51.04278,0,0,1,62.399,110.46191a85.73227,85.73227,0,0,1-6.31922-14.448c-.38214-1.179-.72052-2.34229-1.02325-3.49219-1.79413-6.81494-2.18738-13.08472-1.02-18.36719.05914-.21948.12219-.43725.18591-.65478a31.1893,31.1893,0,0,1,2.4353-5.96167c.049-.09131.10315-.1792.153-.27a34.37568,34.37568,0,0,1,2.18982,6.33227,31.7199,31.7199,0,0,1,3.43109-.19018,31.24548,31.24548,0,0,1,14.27057,3.43408,31.23227,31.23227,0,0,1-1.95276,9.01147c.52606-.25268,1.04242-.52173,1.557-.79394a45.30718,45.30718,0,0,0,11.48974-8.6709c-.98413-.18726-1.94922-.42725-2.8988-.70288a20.12417,20.12417,0,0,0,2.11792-5.86939c-2.01935,2.25684-5.36511,4.18921-6.41943,4.18921l-.06177.03833H80.534l.06183-.03833a31.17453,31.17453,0,0,0,2.43219-5.1206A31.1501,31.1501,0,0,1,77.4873,72.325l-.0285-.01807a31.37124,31.37124,0,0,0,2.13428-3.45434,31.13507,31.13507,0,0,1-3.49841,2.49072,31.22605,31.22605,0,0,0,1.6322-3.05029c-.519.35791-1.04743.7063-1.594,1.03662-.52661.31836-1.06018.61475-1.59741.89868a31.25311,31.25311,0,0,0,1.90558-3.3562c-.4104.27515-.82709.544-1.25433.80225-.723.437-1.45948.83154-2.20215,1.20312a31.8703,31.8703,0,0,1-4.00214-4.561l.00635.00048-.00006-.00024A49.50683,49.50683,0,0,1,65.037,58.84229a1.29623,1.29623,0,0,1,.4021-1.73609c1.64605-1.07641,4.317-2.57641,4.68493-2.73584H70.1239l.00678-.00317.01287-.00586-.00567.00268a31.073,31.073,0,0,1,12.36377-3.35839c.06933-.00416.13995-.00293.20941-.0066.34894.78272.677,1.58057.96613,2.40381.16546.47095.316.94336.45776,1.41675a31.27812,31.27812,0,0,0,.664-3.802c.234.56079.45728,1.1289.66119,1.70947.21167.60254.39777,1.20752.5708,1.81372a31.25194,31.25194,0,0,0,.68042-3.39184,31.13487,31.13487,0,0,1,1.11542,4.147,31.39477,31.39477,0,0,0,.55591-4.07959l.00165.00024a31.15051,31.15051,0,0,1,2.11529,6.23731,31.16274,31.16274,0,0,0,1.37976-5.49829,31.27793,31.27793,0,0,1,1.597,8.6853,31.17554,31.17554,0,0,0,2.80933-7.32227,31.25047,31.25047,0,0,1,3.39715,1.6333,31.17124,31.17124,0,0,0,.86432-3.80859,31.59485,31.59485,0,0,0,.40656-5.032c0-.39063-.01526-.77759-.02942-1.1648q-.05658-1.5498-.26142-3.05835c-.01709-.127-.0299-.25512-.04852-.38183a31.2047,31.2047,0,0,0-1.06567-4.708A63.43051,63.43051,0,0,1,89.96,44.40308c-.37146.24-.74042.48364-1.11712.71606-.05347.0332-.105.06885-.15857.10181a14.03181,14.03181,0,0,1-2.68714,1.12524c-.7478.05322-1.50018.08985-2.26153.08985q-.57642,0-1.14673-.02442a2.0042,2.0042,0,0,1-1.82074-1.34253l-.0044-.01245q-.47268-1.36377-1.006-2.697a63.31461,63.31461,0,0,0-13.06927-1.50806c-.23853-.00268-.47388-.01806-.713-.01806-.04248,0-.08416.00293-.12664.00317a63.8227,63.8227,0,0,0-6.71656.37183,62.76791,62.76791,0,0,1-5.83484-2.4878,63.06264,63.06264,0,0,1-6.924-3.94067q-2.36948-1.5498-4.585-3.30322a63.523,63.523,0,0,1-10.03094-9.91114l-.01172-.01367c.01446.03028.03162.05884.04614.08911A63.44885,63.44885,0,0,0,46.96033,43.07129c-.02545.01514-.04993.03223-.0755.04736a63.05351,63.05351,0,0,1-8.46332-.9353c-.20355-.03662-.406-.07642-.60889-.115a62.7465,62.7465,0,0,1-15.67309-5.17847,63.33672,63.33672,0,0,0,12.60656,9.676q1.13956.665,2.31043,1.28174l-.00025.00415c-1.1795.44848-2.37341.86792-3.58648,1.24682-.65387.20435-1.31464.39258-1.97779.57593a63.29857,63.29857,0,0,1-14.35577,2.25586c-1.77563.07153-3.53271.05-5.277-.02368a63.02486,63.02486,0,0,0,11.4007,5.56836,63.40781,63.40781,0,0,0-12.7367,16.25781,51.02281,51.02281,0,1,1,100.028-14.20557,51.53412,51.53412,0,0,1-.31,5.5835c.04535.00708.09.01685.13538.02393a42.76758,42.76758,0,0,0,6.54687.50878c.61054,0,1.21851-.01977,1.82556-.04589a60.2272,60.2272,0,0,0,.30609-6.07032,59.54,59.54,0,1,0-2.23645,16.15308,48.02483,48.02483,0,0,1-8.988.85083C107.76715,76.53125,107.70282,76.5271,107.63922,76.52686ZM71.573,44.97168c.45874,1.24121.87115,2.50415,1.25274,3.78076a63.11749,63.11749,0,0,0-11.3164,1.57227A62.99416,62.99416,0,0,1,71.573,44.97168Z"/>
          <path d="M134.63507,64.83521a44.94455,44.94455,0,0,1-16.23016,3.61254l-.07343.00147c-.47131.01538-.94269.0293-1.408.0293-.17511,0-.35126-.00831-.52667-.01026-.09149-.001-.18323-.0039-.27478-.00537q-.83286-.015-1.66779-.06079c-.165-.009-.33-.01831-.4953-.029q-.75165-.04982-1.50213-.12525c-.18-.01782-.35956-.03247-.5398-.05249-.64123-.07129-1.28125-.15332-1.91833-.252l-.05762-.00781c-.05206-.00806-.10321-.01929-.15521-.02759q-.94584-.15051-1.88086-.33862c-.08441-.01709-.16693-.03809-.2511-.05567-.56079-.1167-1.11957-.23974-1.67389-.3772-.09424-.02343-.18634-.05126-.28033-.07519-.5401-.13745-1.07837-.28052-1.61188-.4375-.09223-.0271-.18213-.05859-.27405-.08618-.53082-.15991-1.05969-.3252-1.58356-.5044-.08508-.029-.16784-.0625-.25268-.09179-.52381-.18287-1.04566-.37085-1.56214-.57276-.10479-.041-.2066-.08691-.311-.12866-.4903-.196-.97931-.39526-1.46259-.60864-.16845-.07422-.33221-.15625-.49945-.23242-.41284-.18824-.82635-.37525-1.23376-.57618q-.85711-.423-1.698-.88232c-.23431-.17017-.47644-.31982-.713-.48486-.55365-.387-1.10645-.77759-1.66925-1.1355-.63373-.40283-1.28656-.77759-1.94171-1.14868-.17389-.09839-.34571-.21192-.51984-.30713-.74377-.40772-1.50384-.78662-2.271-1.15113-.166-.07885-.33216-.15747-.49915-.23437a44.777,44.777,0,0,0-4.88934-1.91138c-.096-.03125-.19172-.06274-.288-.09326-.862-.273-1.73126-.52368-2.60821-.74365-.0196-.00733-.04175-.01172-.06147-.019a6.31283,6.31283,0,0,0-1.37213-.32862l-.0733-.00952-.039-.00513a4.88782,4.88782,0,0,0-.70215-.05957,6.21363,6.21363,0,0,0-3.84473,1.335l-2.94921,2.29,2.57226.50684a9.98236,9.98236,0,0,0-1.69726,1.2998l-1.08539,1.01709h-.00006l-.38428.35987.86987.24267,1.50025.41846-.907.32568h-.00006l-2.175.78077,3.27124.59472h.00013l2.95276.53662c.93469.16944,1.85412.37451,2.76477.59839.33081.08154.65557.17554.98327.26441.594.16015,1.18469.3269,1.76746.50976.29486.09278.589.187.88208.28589q1.01422.34167,2.0039.72827c.15333.05982.31122.11279.46326.17432.04187.01684.0838.03515.12567.05224q1.25226.5094,2.46332,1.08814c.04041.01929.0816.0354.122.05493.10028.0481.20087.1001.30078.15015.12286.06152.24512.12134.37012.18481l.19977.10181.00531.00268.21984.10108q.75953.36108,1.536.69482l.01074.00489.01538.0061a45.442,45.442,0,0,0,5.19183,1.86157c.09345.02734.1864.05542.28015.082q1.22846.35046,2.4751.62989c.14038.03125.28211.06.4231.09033.82049.17627,1.64477.33545,2.47393.46557.02124.00342.04212.00855.06336.012.79681.12378,1.60956.22607,2.43243.30761.81385.08057,1.63758.14087,2.466.17969.54467.02564,1.08685.03223,1.62872.03784.15863.00171.31842.011.47675.011.22546,0,.451-.01221.67663-.01563l.03876-.001c.04864-.00073.09735-.0044.146-.00537q1.00965-.019,2.01093-.08252c.17084-.01075.34106-.02735.51178-.0398.58319-.04346,1.16473-.09448,1.74274-.16015.12432-.01392.24829-.02979.37243-.04468.659-.08057,1.31513-.17285,1.96656-.282.04357-.00733.08728-.01416.13079-.02173.59528-.10157,1.185-.22217,1.7732-.34766.13067-.02978.26233-.05664.39343-.08569l-.00189.009c.08844-.01977.17474-.04565.26306-.06592.64593-.147,1.28168-.30713,1.91315-.48q.14154-.03918.28259-.07934c.417-.11744.842-.2229,1.25055-.35132l.24219-.07617-.00592-.03028A45.246,45.246,0,0,0,134.63507,64.83521Z"/>
        </g>
        <path class="cls-3" d="M116.9233,70.17859a47.2903,47.2903,0,0,1-7.24414-.5625A46.72916,46.72916,0,0,1,94.393,64.43249l-.09473-.05176-.08789-.06445a43.5862,43.5862,0,0,0-4.66016-2.96,42.95836,42.95836,0,0,0-10.27172-4.00879,4.50876,4.50876,0,0,0-4.517.63886c.52.102,1.03863.20843,1.55334.32946q1.88682.4434,3.72486,1.05463c.16558.0791.33465.1521.49572.23883.097.00867.193.01923.28925.03034.34814.12365.69275.25848,1.038.39129a43.2714,43.2714,0,0,1,5.1203,2.35187c.048.02606.09742.04816.14533.0744a43.58608,43.58608,0,0,1,4.66015,2.96l.08789.06446.09473.05175a46.72893,46.72893,0,0,0,15.28613,5.1836,47.2903,47.2903,0,0,0,7.24414.5625c.44941,0,.89679-.015,1.34455-.02777a42.83833,42.83833,0,0,0,4.94659-1.2323Q118.86911,70.1776,116.9233,70.17859Z"/>
        <path d="M82.70734,56.56738a44.777,44.777,0,0,1,4.88934,1.91138A44.65575,44.65575,0,0,0,82.70734,56.56738Z"/>
        <path d="M90.88666,60.17139c-.17505-.09912-.34217-.21021-.51874-.30689-.74341-.40722-1.504-.78589-2.27209-1.15137.76715.36451,1.52722.74341,2.271,1.15113C90.541,59.95947,90.71277,60.073,90.88666,60.17139Z"/>
        <path d="M87.56311,68.92261c.18939.095.37915.18945.56781.28564l.00208.001-.19977-.10181C87.80823,69.044,87.686,68.98413,87.56311,68.92261Z"/>
        <path d="M88.6637,69.45312q.61138.28455,1.23047.55469-.7761-.334-1.536-.69482Z"/>
        <path d="M103.26019,73.46777q1.238.123,2.46826.17994c.54413.02539,1.08582.03491,1.62647.03759-.54187-.00561-1.08405-.0122-1.62872-.03784C104.89777,73.60864,104.074,73.54834,103.26019,73.46777Z"/>
        <path d="M82.41937,56.47412c-.87921-.2793-1.768-.53638-2.66968-.76269.01972.00732.04187.01171.06147.019C80.68811,55.95044,81.55737,56.20117,82.41937,56.47412Z"/>
        <polygon class="cls-1" points="71.047 62.363 71.044 62.36 71.044 62.36 71.047 62.363"/>
        <path d="M108.5083,73.68066l.03858-.00024.00018-.00073Z"/>
      </g>
      <path class="cls-4" d="M114.5013,71.27948a47.2903,47.2903,0,0,1-7.24414-.5625A46.72893,46.72893,0,0,1,91.971,65.53338l-.09473-.05175-.08789-.06446a43.58608,43.58608,0,0,0-4.66015-2.96c-.04791-.02624-.09735-.04834-.14533-.0744a43.2714,43.2714,0,0,0-5.1203-2.35187c-.34521-.13281-.68982-.26764-1.038-.39129-.09625-.01111-.19226-.02167-.28925-.03034-.338-.03033-.67859-.05176-1.02447-.05176A11.26924,11.26924,0,0,0,73.50735,61.29a11.31128,11.31128,0,0,1,8.4516,1.57337l-.00263.00848a11.13154,11.13154,0,0,0-5.958.47217,46.93947,46.93947,0,0,1,5.05732,1.20972q2.09994.62723,4.134,1.44751.42032.16983.83728.3482c.66247.28272,1.321.57526,1.97064.88874.23633.11328.46973.23242.70313.35156l.16992.08594c.169.08154.34106.15576.511.2351.39649.18506.79444.3664,1.19593.53919a43.47694,43.47694,0,0,0,10.51184,3.02942,44.14942,44.14942,0,0,0,4.71777.46875q1.01514.04833,2.02441.04785a43.46954,43.46954,0,0,0,8.01435-.74426C115.39809,71.26452,114.95071,71.27948,114.5013,71.27948Z"/>
    </symbol>
  </defs>
  <title>Logo Positiv_4c_BlackDragon</title>
  <g id="Ebene_2" data-name="Ebene 2">
    <g id="ice_dragon_neg" data-name="ice dragon neg">
      <g>
        <g>
          <path class="cls-5" d="M152.9675,60.6698h-7V24.32019h7Z"/>
          <path class="cls-5" d="M177.52805,61.27039a21.95559,21.95559,0,0,1-8.251-1.4502,17.39836,17.39836,0,0,1-6.0752-4,16.96019,16.96019,0,0,1-3.75-5.97461,20.982,20.982,0,0,1-1.27539-7.375,20.10028,20.10028,0,0,1,1.32618-7.32519,17.41208,17.41208,0,0,1,3.82421-5.97559,17.95476,17.95476,0,0,1,6.09961-4.02441,21.20093,21.20093,0,0,1,8.10157-1.47559,23.28991,23.28991,0,0,1,4.25.40039,27.24008,27.24008,0,0,1,4.54882,1.30078l-1.79882,4.59961a31.3191,31.3191,0,0,0-3.75-.90039,20.47635,20.47635,0,0,0-3.25-.25,10.89289,10.89289,0,0,0-5.20118,1.17578,11.11413,11.11413,0,0,0-3.65039,3.07422,13.32,13.32,0,0,0-2.17382,4.34961,17.93848,17.93848,0,0,0,0,10.10059,13.58659,13.58659,0,0,0,2.17382,4.375,10.71107,10.71107,0,0,0,3.65039,3.07519,11.07521,11.07521,0,0,0,5.20118,1.15039,16.22836,16.22836,0,0,0,6.94921-1.70117l1.84961,4.55078a21.7867,21.7867,0,0,1-4.47461,1.72461A17.2669,17.2669,0,0,1,177.52805,61.27039Z"/>
          <path class="cls-5" d="M189.2468,24.32019h21.79882v5.15039H196.39523V55.52039h15.45118V60.6698H189.2468ZM198.29562,44.121a15.60651,15.60651,0,0,1,.65039-1.70117,7.46276,7.46276,0,0,1,1-1.64941,5.04176,5.04176,0,0,1,1.42579-1.22559,3.78728,3.78728,0,0,1,1.92382-.47461h6.05079V44.121Z"/>
          <path class="cls-5" d="M245.49484,56.121a9.66859,9.66859,0,0,0,4.92578-1.20117,10.50524,10.50524,0,0,0,3.42383-3.14941,13.50931,13.50931,0,0,0,1.97461-4.39942,19.88736,19.88736,0,0,0,.625-4.95117,18.23516,18.23516,0,0,0-.77734-5.44922,11.14787,11.14787,0,0,0-2.43164-4.30078,11.31853,11.31853,0,0,0-4.23633-2.82422,16.77388,16.77388,0,0,0-6.19141-1.02539q-1.00488,0-2.082.09961-1.07812.10254-2.23047.30078V60.6698h-7V24.97058a61.48042,61.48042,0,0,1,6.25-1,50.254,50.254,0,0,1,5.09961-.30078,28.86158,28.86158,0,0,1,8.92578,1.27539,18.6333,18.6333,0,0,1,6.65039,3.67578,15.5783,15.5783,0,0,1,4.14844,5.875,20.71373,20.71373,0,0,1,1.42578,7.92383,20.11355,20.11355,0,0,1-1.34961,7.40039,18.92827,18.92827,0,0,1-3.70117,6,16.8,16.8,0,0,1-5.625,4,17.27347,17.27347,0,0,1-7.07422,1.4502q-.70019,0-1.27539-.02442a11.62769,11.62769,0,0,1-1.22461-.125c-.43359-.06836-.9082-.15039-1.42578-.25q-.77343-.15087-1.875-.45117a15.5935,15.5935,0,0,1,.75-1.39941,8.56318,8.56318,0,0,1,1.05078-1.39942,5.2517,5.2517,0,0,1,1.40039-1.07617A3.89753,3.89753,0,0,1,245.49484,56.121Z"/>
          <path class="cls-5" d="M294.05344,34.77039a9.74234,9.74234,0,0,1-1.34961,5.20019,10.481,10.481,0,0,1-3.59961,3.54981l-1.40039.5498q.19922.10107.55078.25a2.66021,2.66021,0,0,1,.54883.30078,9.44294,9.44294,0,0,1,2.35156,3.07422,27.01347,27.01347,0,0,1,1.47461,3.84961q.624,2.07715,1.25,4.40039a29.90362,29.90362,0,0,0,1.72461,4.72461h-7.34961a20.98942,20.98942,0,0,1-1.42578-4.07422q-.52441-2.17529-1.125-4.22461a28.28123,28.28123,0,0,0-1.40039-3.80078,7.53606,7.53606,0,0,0-2.19922-2.84961,14.21022,14.21022,0,0,1-2.22461.02539,10.79671,10.79671,0,0,1-2.47461-.47558q.29883-.69873.67383-1.47559a8.13157,8.13157,0,0,1,.90039-1.44922,5.10057,5.10057,0,0,1,1.19922-1.125,3.44926,3.44926,0,0,1,1.52539-.55078,5.196,5.196,0,0,0,1.95117-.57422,5.41177,5.41177,0,0,0,1.57422-1.25,5.99245,5.99245,0,0,0,1.07422-1.82519,6.24907,6.24907,0,0,0,.40039-2.25A5.3048,5.3048,0,0,0,286.155,32.371a6.08857,6.08857,0,0,0-1.47656-1.90039,6.768,6.768,0,0,0-2.19922-1.25,8.10466,8.10466,0,0,0-2.72461-.45019q-.7002,0-1.17578.02441c-.31641.01758-.625.03418-.92383.05078-.30078.01758-.61719.04981-.95117.09961q-.501.07617-1.15039.125V60.6698h-7.19922V24.77039q1.998-.3501,3.55078-.5752c1.03125-.15039,1.97461-.26562,2.82422-.34961q1.27441-.12452,2.47461-.17578,1.20117-.04834,2.55078-.04883a19.92391,19.92391,0,0,1,5.54883.75,14.41469,14.41469,0,0,1,4.55078,2.17383,10.484,10.484,0,0,1,3.07422,3.5A9.75988,9.75988,0,0,1,294.05344,34.77039Z"/>
          <path class="cls-5" d="M308.50851,52.72058l-2.65039,7.94922H298.8093l13.04882-36.34961h7L331.90891,60.6698h-7.4004l-9-27.04883-.40039-1.85058-.44921,1.95019-4.25,12.94922-.59961,1,.75-.09961h3.79882a3.52135,3.52135,0,0,1,1.90039.5,5.57226,5.57226,0,0,1,1.4004,1.25A8.01363,8.01363,0,0,1,318.6843,50.996a14.52107,14.52107,0,0,1,.67382,1.72461Z"/>
          <path class="cls-5" d="M352.22336,28.82019a11.92045,11.92045,0,0,0-5.30078,1.125,11.71811,11.71811,0,0,0-3.875,3,12.79444,12.79444,0,0,0-2.375,4.375,16.96823,16.96823,0,0,0-.79883,5.2002,16.16586,16.16586,0,0,0,.79883,5.0498,13.60955,13.60955,0,0,0,2.32617,4.34961,11.35571,11.35571,0,0,0,3.79883,3.05078A11.5355,11.5355,0,0,0,352.073,56.121q1.09863,0,2.15039-.07617a15.91043,15.91043,0,0,0,2.65039-.47461v-11.75h6.34961v15a26.177,26.177,0,0,1-2.8711,1.0752,29.439,29.439,0,0,1-3.01953.77441q-1.49706.30175-2.87109.45117a22.70681,22.70681,0,0,1-2.41992.14942,22.46247,22.46247,0,0,1-8.3125-1.4502,18.00581,18.00581,0,0,1-6.21485-4,17.34342,17.34342,0,0,1-3.89453-5.97461,19.82243,19.82243,0,0,1-1.34765-7.32519,19.30221,19.30221,0,0,1,1.40039-7.375,17.64673,17.64673,0,0,1,4-5.97559,18.89851,18.89851,0,0,1,6.27539-4.02441,22.04226,22.04226,0,0,1,8.27539-1.47559,28.47539,28.47539,0,0,1,4.90039.5,26.59021,26.59021,0,0,1,5.64844,1.70117l-1.84961,4.79883a28.1159,28.1159,0,0,0-4.90039-1.47461A21.20989,21.20989,0,0,0,352.22336,28.82019Z"/>
          <path class="cls-5" d="M384.99289,61.371a19.21753,19.21753,0,0,1-7.69922-1.45117,16.50925,16.50925,0,0,1-5.67578-3.97461,16.92162,16.92162,0,0,1-3.52539-5.97461,22.7213,22.7213,0,0,1-1.19922-7.5,21.8049,21.8049,0,0,1,1.22461-7.34961,17.71816,17.71816,0,0,1,3.55078-6.02539,16.49273,16.49273,0,0,1,5.67383-4.05078,18.83011,18.83011,0,0,1,7.65039-1.47461,18.59443,18.59443,0,0,1,8.32617,1.7002,16.35383,16.35383,0,0,1,5.59961,4.4248,17.46674,17.46674,0,0,1,3.15039,6.09961,24.02683,24.02683,0,0,1,.97461,6.67578,21.14964,21.14964,0,0,1-1.20117,7.09961,18.4637,18.4637,0,0,1-3.47461,6.02539,16.708,16.708,0,0,1-5.65039,4.19922A18.05518,18.05518,0,0,1,384.99289,61.371Zm0-32.65039a9.10948,9.10948,0,0,0-4.54883,1.09961,9.8816,9.8816,0,0,0-3.27539,3,13.96725,13.96725,0,0,0-2,4.40039,20.01134,20.01134,0,0,0-.67578,5.25,19.14445,19.14445,0,0,0,.67578,5.07422,14.29476,14.29476,0,0,0,2,4.40039,10.53165,10.53165,0,0,0,3.27539,3.09961,8.632,8.632,0,0,0,4.54883,1.17578,8.9189,8.9189,0,0,0,3.95117-.92578,10.0378,10.0378,0,0,0,3.34961-2.67383,13.58033,13.58033,0,0,0,2.32422-4.30078,17.97324,17.97324,0,0,0,.875-5.84961,19.80273,19.80273,0,0,0-.72461-5.47461,13.57341,13.57341,0,0,0-2.07422-4.35058,9.92081,9.92081,0,0,0-3.30078-2.875A9.13416,9.13416,0,0,0,384.99289,28.72058Z"/>
          <path class="cls-5" d="M414.77805,35.22058l-.80079-1.80078.09961,1.70117V60.6698h-6.09961V24.32019h6.9004l15.3496,24.4502.70118,2-.10157-2V24.32019h6.35157V60.6698h-6.35157Z"/>
        </g>
        <g>
          <path class="cls-1" d="M131.83,65.91553l.03991-.01392Z"/>
          <path class="cls-1" d="M134.63516,64.83533c-.28808.12329-.58246.23315-.87335.35083.29157-.11573.58514-.22742.87317-.35083Z"/>
        </g>
        <use width="134.63507" height="119.05518" xlink:href="#Isotyp_Positiv_4c_BlackDragon"/>
      </g>
    </g>
  </g>
</svg>
