<svg xmlns="http://www.w3.org/2000/svg" xmlns:xlink="http://www.w3.org/1999/xlink" viewBox="0 0 283.46457 283.46457">
  <defs>
    <style>
      .cls-1 {
        fill: none;
      }

      .cls-2 {
        fill: #fff;
      }

      .cls-3 {
        fill: #b8dcf5;
      }

      .cls-4 {
        fill: #4677a2;
      }
    </style>
    <symbol id="Isotyp_Negativ_4c_White_Stroke" data-name="Isotyp_Negativ_4c_White_Stroke" viewBox="0 0 134.635 119.055">
      <path class="cls-1" d="M121.3811,68.23877c.35425-.03552.70954-.06628,1.06171-.11011C122.09058,68.17212,121.73541,68.20349,121.3811,68.23877Z"/>
      <path class="cls-1" d="M125.8667,67.56152c.15375-.03149.30853-.05932.46179-.09228C126.17523,67.50195,126.02051,67.53027,125.8667,67.56152Z"/>
      <path class="cls-1" d="M118.38751,68.44873q1.02969-.03369,2.04968-.11548c-.68011.05322-1.36328.093-2.04968.11548Z"/>
      <path class="cls-1" d="M127.9328,67.09082c.09265-.02344.18591-.04517.27844-.06921C128.11877,67.04565,128.02545,67.06738,127.9328,67.09082Z"/>
      <path class="cls-1" d="M129.91779,66.54028c.04626-.014.09277-.02734.139-.0415C130.01056,66.51294,129.964,66.52637,129.91779,66.54028Z"/>
      <path class="cls-1" d="M123.699,67.94653c.23621-.03637.47364-.06762.70887-.10754C124.17261,67.87878,123.93524,67.9104,123.699,67.94653Z"/>
      <path class="cls-1" d="M109.9408,67.93579c-.02979-.00464-.05878-.01123-.08857-.01587h0c.02979.00464.05878.01123.08857.01587a45.26116,45.26116,0,0,0,8.44671.51294h0A45.26116,45.26116,0,0,1,109.9408,67.93579Z"/>
      <polygon class="cls-2" points="79.593 68.853 79.582 68.861 79.588 68.862 79.593 68.853"/>
      <path class="cls-1" d="M86.67548,58.0896c.31115.13428.62835.25684.93585.398C87.30377,58.34644,86.98669,58.22388,86.67548,58.0896Z"/>
      <path class="cls-1" d="M81.75037,56.80762c.10614.00964.21533.01794.31872.02856C81.965,56.82544,81.85724,56.81738,81.75037,56.80762Z"/>
      <path class="cls-1" d="M78.62048,56.73413c.13306-.00781.26691-.01172.4007-.01611C78.8869,56.72253,78.754,56.72632,78.62048,56.73413Z"/>
      <path class="cls-1" d="M79.66785,56.7063q.20618.00036.41113.00488C79.94159,56.70813,79.806,56.70654,79.66785,56.7063Z"/>
      <path class="cls-1" d="M80.71625,56.73462c.12927.00659.25879.01245.38592.021C80.97424,56.74707,80.84631,56.74121,80.71625,56.73462Z"/>
      <path class="cls-1" d="M77.59625,56.83069c.11048-.01514.22443-.02332.33655-.03552C77.82043,56.80737,77.70691,56.81543,77.59625,56.83069Z"/>
      <path class="cls-1" d="M82.80341,56.92114c.04974.00635.10485.012.1535.01831C82.908,56.93311,82.85345,56.92749,82.80341,56.92114Z"/>
      <path class="cls-3" d="M133.66547,65.22461h-.00006q-.88962.35706-1.7956.67688l-.03991.01392q-.87956.30925-1.77314.58337c-.0462.01416-.09271.02747-.139.0415q-.8477.25635-1.70655.48133c-.09253.024-.18579.04577-.27844.06921-.5321.13464-1.06592.26306-1.60431.37842-.15326.033-.308.06079-.46179.09228-.48456.09839-.96967.19483-1.45886.27747-.23523.03992-.47266.07117-.70887.10754-.418.06372-.83514.12989-1.25616.18213-.35217.04383-.70746.07459-1.06171.11011-.31469.03149-.62768.06958-.94391.09448q-1.02007.08038-2.04968.11548a45.26116,45.26116,0,0,1-8.44671-.51294c-.02979-.00464-.05878-.01123-.08857-.01587a45.07481,45.07481,0,0,1-14.64306-4.98,45.19893,45.19893,0,0,0-4.84125-3.07544c-.899-.49243-1.82056-.948-2.75659-1.377-.3075-.14111-.6247-.26367-.93585-.398-.51728-.22314-1.02893-.45679-1.55573-.66162-.08282-.03211-.16894-.05383-.25287-.08277a6.86374,6.86374,0,0,0-1.15411-.29589l-.01361-.00281c-.22858-.03577-.478-.072-.74225-.10706-.04865-.00634-.10376-.012-.1535-.01831-.23505-.03-.47907-.05884-.73432-.085-.10339-.01062-.21258-.01892-.31872-.02856-.21216-.01941-.42737-.03736-.6482-.052-.12713-.00855-.25665-.01441-.38592-.021q-.31576-.01611-.63727-.02344-.20508-.0044-.41113-.00488c-.21558-.00049-.43109.00452-.64667.01172-.13379.00439-.26764.0083-.4007.01611-.232.01343-.46026.03638-.68768.061-.11212.0122-.22607.02038-.33655.03552a9.807,9.807,0,0,0-.97339.17834,3.52079,3.52079,0,0,0-1.86139.9773s3.87671,1.10791,5.43012,1.50659c.076.01953.15332.03955.21741.05542.20111.0498.34179.0813.39624.08691l.01941.00428c.34814.12365.69275.25854,1.038.39135q1.30828.50337,2.58972,1.0885,1.28073.58668,2.53058,1.26343c.048.026.09741.0481.14532.07434a43.5862,43.5862,0,0,1,4.66016,2.96l.08789.06446.09473.05176a46.72914,46.72914,0,0,0,15.28613,5.18359c.65924.10254,1.32166.18811,1.98541.26282h.00006a47.116,47.116,0,0,0,5.25867.29968h.01349l.007-.00037a12.37105,12.37105,0,0,0,2.35388-.25171c.10852-.02111.21832-.03149.32654-.05517.22986-.05017.493-.10962.77167-.17359,3.423-.7854,10.31567-2.6101,15.6914-5.574Z"/>
      <path class="cls-2" d="M59.52759,0a59.52747,59.52747,0,1,0,57.29114,75.68018,48.016,48.016,0,0,1-8.98706.85083c-.06385,0-.12842-.00415-.19233-.0044A51.04245,51.04245,0,0,1,62.399,110.46167l.00213.00415c-.04559.00244-.092.00159-.13763.004.04523-.00232.09033-.00562.1355-.00818a85.72607,85.72607,0,0,1-6.31922-14.44775c-.38214-1.179-.72052-2.34229-1.02325-3.49219-1.79413-6.81494-2.18738-13.08472-1.02-18.36719.05914-.21948.12219-.43725.18591-.65478a31.1893,31.1893,0,0,1,2.4353-5.96167c.049-.09131.10315-.1792.153-.27a34.37568,34.37568,0,0,1,2.18982,6.33227,31.7199,31.7199,0,0,1,3.43109-.19018,31.24548,31.24548,0,0,1,14.27057,3.43408,31.23227,31.23227,0,0,1-1.95276,9.01147c.52606-.25268,1.04242-.52173,1.557-.79394a45.30718,45.30718,0,0,0,11.48974-8.6709c-.98413-.18726-1.94922-.42725-2.8988-.70288a24.02636,24.02636,0,0,0,1.693-4.083c-.18426-.094-.36889-.18823-.55554-.27808-.134-.06469-.2735-.11547-.40808-.17871-1.91608,1.63306-4.19324,2.85962-5.03088,2.85962l-.06177.03833H80.534l.06183-.03833a30.959,30.959,0,0,0,2.0393-4.12353c-.21539-.08179-.43487-.15149-.65155-.22949A31.19528,31.19528,0,0,1,77.4873,72.325l-.0285-.01807a31.38969,31.38969,0,0,0,2.12879-3.44482l-.00519-.00146a31.1578,31.1578,0,0,1-3.48773,2.48266,31.24912,31.24912,0,0,0,1.60382-2.99353l-.04163-.01135c-.49695.34143-1.0014.67529-1.524.99121-.52661.31836-1.06018.61475-1.59741.89868.48438-.74133.91956-1.5022,1.33313-2.27087-.29278-.05811-.585-.118-.87933-.17005-.65991.39063-1.329.752-2.0047,1.09009-.53589-.50305-1.048-1.03284-1.54846-1.57471l-.02045-.00219-.27643-.32044a32.48128,32.48128,0,0,1-2.1568-2.66369h.00086l-.00025-.00025L68.92151,64.24l.001.001c-.002,0-1.667-2.00782-2.999-3.98243l-1.666-2.46875,2.54882-1.542c1.02735-.62109,2.1084-1.23535,2.7168-1.56933l.19574-.09973c.18726-.10035.34088-.18055.40521-.20838H70.1239l.00678-.00317.01287-.00586-.00567.00268.03259-.01513.001-.00049.00342-.00159c.81579-.41382,1.65637-.78357,2.51013-1.12793.04242-.017.0863-.03161.12884-.04822.84851-.33789,1.7165-.63427,2.59931-.89856l.03369-.01159.63184-.18848.01678.00269a30.46285,30.46285,0,0,1,3.12994-.70508,31.41894,31.41894,0,0,1,3.27619-.364c.06933-.00416.13995-.00293.20941-.0066.34894.78272.677,1.58057.96613,2.40381.065.18494.119.3711.1798.55652.142.04712.28571.0896.42731.13806a31.01191,31.01191,0,0,0,.51465-3.07983c.234.56079.45728,1.1289.66119,1.70947.21167.60254.39777,1.20752.5708,1.81372a31.25194,31.25194,0,0,0,.68042-3.39184,31.13487,31.13487,0,0,1,1.11542,4.147,31.39477,31.39477,0,0,0,.55591-4.07959l.00165.00024a31.14308,31.14308,0,0,1,1.90649,5.412c.13678.069.27161.14209.40778.2124a31.019,31.019,0,0,0,1.18078-4.88537,31.24554,31.24554,0,0,1,1.411,6.34326c.34729.20849.69683.40246,1.04138.62134a31.24907,31.24907,0,0,0,1.95392-5.60157,31.25047,31.25047,0,0,1,3.39715,1.6333,31.17124,31.17124,0,0,0,.86432-3.80859,31.59485,31.59485,0,0,0,.40656-5.032c0-.39063-.01526-.77759-.02942-1.1648q-.05658-1.5498-.26142-3.05835c-.01709-.127-.0299-.25512-.04852-.38183a31.2047,31.2047,0,0,0-1.06567-4.708A63.43051,63.43051,0,0,1,89.96,44.40308c-.37146.24-.74042.48364-1.11712.71606-.05347.0332-.105.06885-.15857.10181a14.03181,14.03181,0,0,1-2.68714,1.12524c-.7478.05322-1.50018.08985-2.26153.08985q-.57642,0-1.14673-.02442a2.0042,2.0042,0,0,1-1.82074-1.34253l-.0044-.01245q-.47268-1.36377-1.006-2.697a63.31461,63.31461,0,0,0-13.06927-1.50806c-.23853-.00268-.47388-.01806-.713-.01806-.04248,0-.08416.00293-.12664.00317a63.8227,63.8227,0,0,0-6.71656.37183,62.76791,62.76791,0,0,1-5.83484-2.4878,63.06264,63.06264,0,0,1-6.924-3.94067q-2.36948-1.5498-4.585-3.30322a63.523,63.523,0,0,1-10.03094-9.91114l-.01172-.01367c.01446.03028.03162.05884.04614.08911A63.44885,63.44885,0,0,0,46.96033,43.07129c-.02545.01514-.04993.03223-.0755.04736a63.05351,63.05351,0,0,1-8.46332-.9353c-.20355-.03662-.406-.07642-.60889-.115a62.7465,62.7465,0,0,1-15.67309-5.17847,63.33672,63.33672,0,0,0,12.60656,9.676q1.13956.665,2.31043,1.28174l-.00025.00415c-1.1795.44848-2.37341.86792-3.58648,1.24682-.65387.20435-1.31464.39258-1.97779.57593a63.29857,63.29857,0,0,1-14.35577,2.25586c-1.77563.07153-3.53271.05-5.277-.02368a63.02486,63.02486,0,0,0,11.4007,5.56836,63.40781,63.40781,0,0,0-12.7367,16.25781,51.02281,51.02281,0,1,1,100.028-14.20557,51.54511,51.54511,0,0,1-.30994,5.58326c.04535.00708.09.01684.13532.02392a42.76633,42.76633,0,0,0,6.54687.50879c.61054,0,1.21851-.01977,1.82556-.0459a60.22223,60.22223,0,0,0,.30609-6.07007A59.52746,59.52746,0,0,0,59.52759,0ZM71.573,44.97168c.45874,1.24121.87115,2.50415,1.25274,3.78076a63.11749,63.11749,0,0,0-11.3164,1.57227A62.99416,62.99416,0,0,1,71.573,44.97168Z"/>
      <path class="cls-4" d="M133.76172,65.186l-.09631.03857c-5.3758,2.96387-12.2685,4.78857-15.69153,5.574-.27863.064-.54181.12342-.77167.17359-.10822.02368-.218.03406-.32654.05517-.34375.073-.72882.1062-1.07464.17115-.44092.01257-.83667.08007-1.27924.08056l-.007.00037h-.01349c-1.74628,0-2.90668-.0929-5.25873-.29968-.66375-.07471-1.32617-.16028-1.98541-.26282A46.72914,46.72914,0,0,1,91.971,65.53333l-.09473-.05176-.08789-.06446a43.5862,43.5862,0,0,0-4.66016-2.96c-.04791-.02624-.09735-.04834-.14532-.07434q-1.24914-.67822-2.53058-1.26343-1.28073-.58666-2.58972-1.0885c-.34521-.13281-.68982-.2677-1.038-.39123L80.754,59.6322c.0169.00171.03436.00134.05127.00305-.05445-.00561-.19513-.03711-.39624-.08691-.06409-.01587-.14142-.03589-.21741-.05542-.18634.00562-.63342.02527-1.231.08447H78.9599a11.20388,11.20388,0,0,0-1.43359.16284l-.0318.00586c-.23749.04309-.46436.11426-.69641.172-.22474.056-.4552.09729-.67444.16663a7.51272,7.51272,0,0,0-2.61634,1.2052c.23511-.04883.47718-.07727.71723-.11158a11.04557,11.04557,0,0,1,7.73437,1.68494l-.00262.00855a11.78077,11.78077,0,0,0-1.41724-.17066,26.0337,26.0337,0,0,0-4.2973.56616l-.05194.00977a8.42262,8.42262,0,0,0-3.389,1.28625c.01294.01514.02442.03186.03742.047h-.00013c.57489.06494,1.14881.11963,1.726.20947A45.15386,45.15386,0,0,1,87.26166,68.771c.29272.14135.58044.29.86926.43725a45.15313,45.15313,0,0,0,12.69751,3.95117,45.65926,45.65926,0,0,0,4.9.48829c.94458.04394,1.88312.0476,2.81843.03271a44.86217,44.86217,0,0,0,9.04614-1.06128,45.20429,45.20429,0,0,0,17.04187-7.78393C134.34686,64.95862,134.05328,65.07031,133.76172,65.186Z"/>
    </symbol>
  </defs>
  <title>Isotyp_Negativ_4c_White_Stroke</title>
  <g id="stickers">
    <circle class="cls-1" cx="141.73228" cy="141.73228" r="141.73228"/>
    <circle class="cls-1" cx="141.73228" cy="141.73228" r="99.2126"/>
    <use width="134.63489" height="119.05493" transform="translate(42.26938 42.61488) scale(1.66507)" xlink:href="#Isotyp_Negativ_4c_White_Stroke"/>
  </g>
</svg>
