<svg xmlns="http://www.w3.org/2000/svg" xmlns:xlink="http://www.w3.org/1999/xlink" viewBox="0 0 437.02802 119.05493">
  <defs>
    <style>
      .cls-1 {
        fill: #1d1d1b;
      }

      .cls-2 {
        fill: #fff;
      }

      .cls-3 {
        fill: #b8dcf5;
      }

      .cls-4 {
        fill: #4677a2;
      }

      .cls-5 {
        fill: none;
      }
    </style>
    <symbol id="Isotyp_Positiv_2c_WhiteDragon" data-name="Isotyp_Positiv_2c_WhiteDragon" viewBox="0 0 134.334 119.055">
      <path class="cls-1" d="M118.39294,68.40576a59.65668,59.65668,0,1,0-.77484,4.10449,45.21186,45.21186,0,0,0,16.71613-7.70507A44.94792,44.94792,0,0,1,118.39294,68.40576Z"/>
      <path class="cls-2" d="M65.03073,58.84174a1.29611,1.29611,0,0,1,.40209-1.736c1.74117-1.13869,4.6423-2.75862,4.73689-2.75672A31.05,31.05,0,0,1,82.7039,50.99447l.00718.00438c.349.78293.677,1.58072.96613,2.40378.16547.471.316.94354.45777,1.41681a31.27088,31.27088,0,0,0,.664-3.80195c.234.5608.45727,1.12885.66119,1.70948.21167.60254.39777,1.20758.5708,1.81366a31.25079,31.25079,0,0,0,.68042-3.39191,31.13638,31.13638,0,0,1,1.11542,4.14722,31.4055,31.4055,0,0,0,.55591-4.07963l.00144-.00028a31.1498,31.1498,0,0,1,2.1155,6.23768,31.163,31.163,0,0,0,1.37976-5.49835,31.27974,31.27974,0,0,1,1.597,8.68549,31.17861,31.17861,0,0,0,2.80932-7.32239,31.28166,31.28166,0,0,1,3.39716,1.63336,31.16871,31.16871,0,0,0,.86432-3.80859,31.59353,31.59353,0,0,0,.40655-5.03192c0-.39069-.01525-.77765-.02941-1.16486q-.05658-1.5498-.26142-3.05823c-.01709-.127-.02991-.25531-.04852-.38189a31.202,31.202,0,0,0-1.06567-4.70795,63.42554,63.42554,0,0,1-9.58869,7.60455c-.37146.24005-.74042.48377-1.11713.71619-.05346.033-.105.06885-.15856.10168a14.025,14.025,0,0,1-2.68714,1.12531c-.7478.05328-1.50018.09-2.26153.09q-.56768,0-1.12943-.02394a2.01943,2.01943,0,0,1-1.838-1.34306l-.0044-.01263q-.47268-1.36341-1.006-2.697a63.31394,63.31394,0,0,0-13.06927-1.50811c-.23853-.00263-.47388-.018-.713-.018-.04248,0-.08416.00311-.12664.00318a63.84155,63.84155,0,0,0-6.71656.37182,62.75124,62.75124,0,0,1-5.83484-2.48773A63.05242,63.05242,0,0,1,46.3735,34.78a64.3136,64.3136,0,0,1-6.87475-5.19713,66.79663,66.79663,0,0,1-6.949-7.09319l-.80385-.93783c.01446.03027.03162.059.04614.08917a63.44475,63.44475,0,0,0,15.16832,21.43l-.02091.04976a63.06331,63.06331,0,0,1-8.51789-.93762c-.20355-.03663-.406-.07642-.60889-.115a62.73389,62.73389,0,0,1-15.67309-5.17846,63.32929,63.32929,0,0,0,12.60656,9.676q1.13957.665,2.31042,1.28186l-.00024.00409c-1.1795.44849-2.37341.86786-3.58648,1.24683-.65387.20428-1.31464.39246-1.97779.57593a63.29575,63.29575,0,0,1-14.35577,2.2558c-1.77563.07147-3.53272.05-5.277-.02375a63.01628,63.01628,0,0,0,11.4007,5.56836,63.41242,63.41242,0,0,0-12.7367,16.25788A51.03458,51.03458,0,0,0,59.52762,110.551c.96484,0,1.92187-.03241,2.87353-.08526a85.73051,85.73051,0,0,1-6.32135-14.452c-.38214-1.17883-.72052-2.34222-1.02325-3.49212-1.79413-6.815-2.18738-13.08478-1.02-18.36725.05914-.21942.12219-.43726.18591-.65479a31.16259,31.16259,0,0,1,2.582-6.23195l.00615.0001a34.37776,34.37776,0,0,1,2.19,6.3325,31.70461,31.70461,0,0,1,3.43109-.19019,31.24539,31.24539,0,0,1,14.27057,3.434,31.233,31.233,0,0,1-1.95276,9.01166c.52606-.25262,1.04242-.52179,1.557-.79394a45.3146,45.3146,0,0,0,11.48974-8.6709c-.98413-.18744-1.94922-.42725-2.8988-.70307a20.12189,20.12189,0,0,0,2.11792-5.86932c-2.01935,2.2569-5.36511,4.18921-6.41944,4.18921l-.06176.03833H80.534l.06182-.03833A31.16546,31.16546,0,0,0,83.028,68.88712a31.15258,31.15258,0,0,1-5.55,3.44229l-.019-.02291a31.37816,31.37816,0,0,0,2.134-3.45417,31.13472,31.13472,0,0,1-3.49842,2.49091A31.24379,31.24379,0,0,0,77.7269,68.293c-.519.35766-1.04743.70624-1.594,1.03656-.52661.31836-1.06018.61474-1.59741.89868A31.25972,31.25972,0,0,0,76.44107,66.872c-.4104.27508-.82709.544-1.25433.80224-.723.437-1.45948.83142-2.20215,1.20307a31.86277,31.86277,0,0,1-4.00214-4.561A49.5163,49.5163,0,0,1,65.03073,58.84174Zm-3.52136-8.51718A62.97957,62.97957,0,0,1,71.573,44.97172c.45874,1.24115.87115,2.50409,1.25274,3.78052A63.11829,63.11829,0,0,0,61.50937,50.32456Z"/>
      <path class="cls-3" d="M116.92331,70.17852a47.289,47.289,0,0,1-7.24414-.5625A46.72914,46.72914,0,0,1,94.393,64.43243l-.09473-.05176-.08789-.06446a43.58865,43.58865,0,0,0-4.66015-2.96,42.95944,42.95944,0,0,0-10.27173-4.00879,4.50883,4.50883,0,0,0-4.517.63886c.52.102,1.03863.20844,1.55334.32947q1.88682.44338,3.72486,1.05462c.16558.07911.33465.1521.49572.23883.097.00867.193.01923.28925.03034.34814.12366.69275.25848,1.038.3913a43.27293,43.27293,0,0,1,5.1203,2.35186c.048.02607.09742.04816.14533.07441a43.5845,43.5845,0,0,1,4.66015,2.96l.0879.06445.09472.05176a46.72914,46.72914,0,0,0,15.28613,5.18359,47.28907,47.28907,0,0,0,7.24415.5625c.4494,0,.89678-.01495,1.34454-.02777a42.83833,42.83833,0,0,0,4.94659-1.2323Q118.86912,70.17754,116.92331,70.17852Z"/>
      <path class="cls-4" d="M114.50132,71.27941a47.28907,47.28907,0,0,1-7.24415-.5625A46.72914,46.72914,0,0,1,91.971,65.53332l-.09472-.05176-.0879-.06445a43.5845,43.5845,0,0,0-4.66015-2.96c-.04791-.02625-.09735-.04834-.14533-.07441a43.27293,43.27293,0,0,0-5.1203-2.35186c-.34521-.13282-.68982-.26764-1.038-.3913-.09625-.01111-.19226-.02167-.28925-.03034-.338-.03033-.67859-.05175-1.02447-.05175a11.26924,11.26924,0,0,0-6.0036,1.73242,11.31116,11.31116,0,0,1,8.4516,1.57336l-.00263.00849a11.13135,11.13135,0,0,0-5.958.47216,46.94421,46.94421,0,0,1,5.05732,1.20972q2.09994.62722,4.134,1.44751.42032.16983.83728.34821c.66247.28271,1.321.57525,1.97064.88873.23633.11328.46973.23242.70313.35156l.16992.08594c.169.08154.34106.15576.511.23511.39649.18506.79444.36639,1.19593.53918a43.4765,43.4765,0,0,0,10.51184,3.02942,44.14683,44.14683,0,0,0,4.71777.46875q1.01514.04834,2.02442.04785a43.46943,43.46943,0,0,0,8.01434-.74426C115.3981,71.26446,114.95072,71.27941,114.50132,71.27941Z"/>
    </symbol>
  </defs>
  <title>Logo Positiv_2c_WhiteDragon</title>
  <g id="Ebene_2" data-name="Ebene 2">
    <g id="ice_dragon_neg" data-name="ice dragon neg">
      <g>
        <g>
          <path class="cls-1" d="M152.81708,60.66968h-7V24.32007h7Z"/>
          <path class="cls-1" d="M177.37762,61.27026a21.95557,21.95557,0,0,1-8.251-1.45019,17.39841,17.39841,0,0,1-6.0752-4,16.96019,16.96019,0,0,1-3.75-5.97461,20.982,20.982,0,0,1-1.27539-7.375,20.10054,20.10054,0,0,1,1.32617-7.3252,17.4123,17.4123,0,0,1,3.82422-5.97558,17.95493,17.95493,0,0,1,6.09961-4.02442,21.20106,21.20106,0,0,1,8.10156-1.47558,23.28886,23.28886,0,0,1,4.25.40039,27.239,27.239,0,0,1,4.54883,1.30078l-1.79883,4.59961a31.31819,31.31819,0,0,0-3.75-.90039,20.47616,20.47616,0,0,0-3.25-.25,10.89285,10.89285,0,0,0-5.20117,1.17578,11.114,11.114,0,0,0-3.65039,3.07422,13.32019,13.32019,0,0,0-2.17383,4.34961,17.93868,17.93868,0,0,0,0,10.10058,13.58661,13.58661,0,0,0,2.17383,4.375,10.7111,10.7111,0,0,0,3.65039,3.0752,11.07516,11.07516,0,0,0,5.20117,1.15039,16.22851,16.22851,0,0,0,6.94922-1.70117l1.84961,4.55078a21.7867,21.7867,0,0,1-4.47461,1.72461A17.2669,17.2669,0,0,1,177.37762,61.27026Z"/>
          <path class="cls-1" d="M189.09637,24.32007H210.8952v5.15039H196.24481v26.0498H211.696v5.14942H189.09637Zm9.04883,19.80078a15.60572,15.60572,0,0,1,.65039-1.70117,7.46283,7.46283,0,0,1,1-1.64942,5.04168,5.04168,0,0,1,1.42578-1.22558,3.78735,3.78735,0,0,1,1.92383-.47461H209.196v5.05078Z"/>
          <path class="cls-1" d="M245.34442,56.12085a9.66859,9.66859,0,0,0,4.92578-1.20117,10.50516,10.50516,0,0,0,3.42383-3.14942,13.50937,13.50937,0,0,0,1.97461-4.39941,19.88736,19.88736,0,0,0,.625-4.95117,18.23516,18.23516,0,0,0-.77734-5.44922,11.1478,11.1478,0,0,0-2.43164-4.30078,11.31861,11.31861,0,0,0-4.23633-2.82422,16.77388,16.77388,0,0,0-6.19141-1.02539q-1.00488,0-2.082.09961-1.07812.10254-2.23047.30078V60.66968h-7V24.97046a61.48042,61.48042,0,0,1,6.25-1,50.25091,50.25091,0,0,1,5.09961-.30078,28.86163,28.86163,0,0,1,8.92578,1.27539,18.63315,18.63315,0,0,1,6.65039,3.67578,15.57823,15.57823,0,0,1,4.14844,5.875,20.71373,20.71373,0,0,1,1.42578,7.92383,20.11363,20.11363,0,0,1-1.34961,7.40039,18.92827,18.92827,0,0,1-3.70117,6,16.80035,16.80035,0,0,1-5.625,4,17.2735,17.2735,0,0,1-7.07422,1.45019q-.7002,0-1.27539-.02441a11.62769,11.62769,0,0,1-1.22461-.125c-.43359-.06836-.9082-.15039-1.42578-.25q-.77343-.15088-1.875-.45117a15.59358,15.59358,0,0,1,.75-1.39942,8.56268,8.56268,0,0,1,1.05078-1.39941,5.2517,5.2517,0,0,1,1.40039-1.07617A3.89753,3.89753,0,0,1,245.34442,56.12085Z"/>
          <path class="cls-1" d="M293.903,34.77026a9.74237,9.74237,0,0,1-1.34961,5.2002,10.4809,10.4809,0,0,1-3.59961,3.5498l-1.40039.54981q.19921.10107.55078.25a2.65974,2.65974,0,0,1,.54883.30078,9.44294,9.44294,0,0,1,2.35156,3.07422,27.01467,27.01467,0,0,1,1.47461,3.84961q.624,2.07714,1.25,4.40039a29.90362,29.90362,0,0,0,1.72461,4.72461h-7.34961a20.98942,20.98942,0,0,1-1.42578-4.07422q-.52441-2.1753-1.125-4.22461a28.28123,28.28123,0,0,0-1.40039-3.80078,7.53606,7.53606,0,0,0-2.19922-2.84961,14.21022,14.21022,0,0,1-2.22461.02539,10.79611,10.79611,0,0,1-2.47461-.47559q.29883-.69873.67383-1.47558a8.13157,8.13157,0,0,1,.90039-1.44922,5.10016,5.10016,0,0,1,1.19922-1.125,3.44926,3.44926,0,0,1,1.52539-.55078,5.196,5.196,0,0,0,1.95117-.57422,5.41177,5.41177,0,0,0,1.57422-1.25,5.99238,5.99238,0,0,0,1.07422-1.8252,6.249,6.249,0,0,0,.40039-2.25,5.30478,5.30478,0,0,0-.54883-2.39941,6.08857,6.08857,0,0,0-1.47656-1.90039,6.76786,6.76786,0,0,0-2.19922-1.25,8.10471,8.10471,0,0,0-2.72461-.4502q-.7002,0-1.17578.02442c-.31641.01758-.625.03418-.92383.05078-.30078.01758-.61719.0498-.95117.09961q-.501.07617-1.15039.125V60.66968H268.2038V24.77026q1.998-.35008,3.55078-.57519c1.03125-.15039,1.97461-.26563,2.82422-.34961q1.27441-.12451,2.47461-.17578,1.20117-.04834,2.55078-.04883a19.924,19.924,0,0,1,5.54883.75,14.41469,14.41469,0,0,1,4.55078,2.17383,10.484,10.484,0,0,1,3.07422,3.5A9.75984,9.75984,0,0,1,293.903,34.77026Z"/>
          <path class="cls-1" d="M308.35809,52.72046l-2.65039,7.94922h-7.04883L311.7077,24.32007h7l13.05078,36.34961h-7.40039l-9-27.04883-.40039-1.85059-.44922,1.9502-4.25,12.94922-.59961,1,.75-.09961h3.79883a3.52135,3.52135,0,0,1,1.90039.5,5.572,5.572,0,0,1,1.40039,1.25,8.01321,8.01321,0,0,1,1.02539,1.67578,14.51952,14.51952,0,0,1,.67383,1.72461Z"/>
          <path class="cls-1" d="M352.07294,28.82007a11.92045,11.92045,0,0,0-5.30078,1.125,11.71811,11.71811,0,0,0-3.875,3,12.79444,12.79444,0,0,0-2.375,4.375,16.96821,16.96821,0,0,0-.79883,5.20019,16.16587,16.16587,0,0,0,.79883,5.04981,13.60955,13.60955,0,0,0,2.32617,4.34961,11.35571,11.35571,0,0,0,3.79883,3.05078,11.53547,11.53547,0,0,0,5.27539,1.15039q1.09863,0,2.15039-.07617a15.91043,15.91043,0,0,0,2.65039-.47461v-11.75h6.34961v15a26.175,26.175,0,0,1-2.8711,1.07519,29.43645,29.43645,0,0,1-3.01953.77442q-1.49706.30176-2.87109.45117a22.70655,22.70655,0,0,1-2.41992.14941,22.46247,22.46247,0,0,1-8.3125-1.45019,18.00586,18.00586,0,0,1-6.21485-4,17.34342,17.34342,0,0,1-3.89453-5.97461,19.82224,19.82224,0,0,1-1.34765-7.3252,19.30225,19.30225,0,0,1,1.40039-7.375,17.64664,17.64664,0,0,1,4-5.97558,18.89869,18.89869,0,0,1,6.27539-4.02442,22.04246,22.04246,0,0,1,8.27539-1.47558,28.47539,28.47539,0,0,1,4.90039.5,26.59021,26.59021,0,0,1,5.64844,1.70117l-1.84961,4.79883a28.1159,28.1159,0,0,0-4.90039-1.47461A21.20989,21.20989,0,0,0,352.07294,28.82007Z"/>
          <path class="cls-1" d="M384.84247,61.37085a19.2177,19.2177,0,0,1-7.69922-1.45117,16.50916,16.50916,0,0,1-5.67578-3.97461,16.92171,16.92171,0,0,1-3.52539-5.97461,22.7213,22.7213,0,0,1-1.19922-7.5,21.8049,21.8049,0,0,1,1.22461-7.34961,17.718,17.718,0,0,1,3.55078-6.02539,16.49273,16.49273,0,0,1,5.67383-4.05078,18.83011,18.83011,0,0,1,7.65039-1.47461,18.5946,18.5946,0,0,1,8.32617,1.70019,16.354,16.354,0,0,1,5.59961,4.42481,17.46674,17.46674,0,0,1,3.15039,6.09961,24.02678,24.02678,0,0,1,.97461,6.67578,21.14968,21.14968,0,0,1-1.20117,7.09961,18.4637,18.4637,0,0,1-3.47461,6.02539,16.708,16.708,0,0,1-5.65039,4.19922A18.05518,18.05518,0,0,1,384.84247,61.37085Zm0-32.65039a9.10948,9.10948,0,0,0-4.54883,1.09961,9.88139,9.88139,0,0,0-3.27539,3,13.96693,13.96693,0,0,0-2,4.40039,20.01134,20.01134,0,0,0-.67578,5.25,19.1445,19.1445,0,0,0,.67578,5.07422,14.29453,14.29453,0,0,0,2,4.40039,10.53165,10.53165,0,0,0,3.27539,3.09961,8.632,8.632,0,0,0,4.54883,1.17578,8.9189,8.9189,0,0,0,3.95117-.92578,10.03792,10.03792,0,0,0,3.34961-2.67383,13.58064,13.58064,0,0,0,2.32422-4.30078,17.97324,17.97324,0,0,0,.875-5.84961,19.80268,19.80268,0,0,0-.72461-5.47461,13.57378,13.57378,0,0,0-2.07422-4.35059,9.92093,9.92093,0,0,0-3.30078-2.875A9.13426,9.13426,0,0,0,384.84247,28.72046Z"/>
          <path class="cls-1" d="M414.62762,35.22046l-.80078-1.80078.09961,1.70117V60.66968h-6.09961V24.32007h6.90039l15.34961,24.45019.70118,2-.10157-2V24.32007H437.028V60.66968h-6.35157Z"/>
        </g>
        <g>
          <path class="cls-5" d="M131.67957,65.91541l.03991-.01392Z"/>
          <path class="cls-5" d="M134.48474,64.83521c-.28808.12329-.58246.23315-.87335.35083.29156-.11573.58514-.22742.87317-.35083Z"/>
        </g>
        <use width="134.33423" height="119.05493" xlink:href="#Isotyp_Positiv_2c_WhiteDragon"/>
      </g>
    </g>
  </g>
</svg>
