<?xml version="1.0" standalone="no"?>
<!DOCTYPE svg PUBLIC "-//W3C//DTD SVG 20010904//EN"
 "http://www.w3.org/TR/2001/REC-SVG-20010904/DTD/svg10.dtd">
<svg version="1.0" xmlns="http://www.w3.org/2000/svg"
 width="1135.000000pt" height="1135.000000pt" viewBox="0 0 1135.000000 1135.000000"
 preserveAspectRatio="xMidYMid meet">
<metadata>
Created by potrace 1.11, written by Peter Selinger 2001-2013
</metadata>
<g transform="translate(0.000000,1135.000000) scale(0.100000,-0.100000)"
fill="#000000" stroke="none">
<path d="M5436 9639 c-838 -50 -1625 -359 -2286 -897 -145 -119 -446 -423
-561 -567 -499 -628 -779 -1308 -865 -2100 -21 -201 -21 -589 0 -790 99 -917
476 -1724 1106 -2369 80 -81 190 -187 245 -235 867 -750 2012 -1088 3144 -930
1586 222 2876 1368 3290 2925 l36 137 120 32 c283 78 601 221 848 384 75 50
137 93 137 95 0 3 -21 -4 -47 -15 -163 -70 -422 -144 -628 -178 -134 -23 -363
-46 -371 -38 -3 3 2 77 12 164 25 215 25 637 0 848 -89 768 -376 1462 -847
2050 -588 734 -1407 1233 -2324 1414 -342 68 -670 91 -1009 70z m-1504 -1554
c125 -143 349 -364 468 -462 348 -287 734 -519 1130 -676 l115 -46 95 10 c129
15 566 15 720 0 148 -14 282 -33 442 -63 l118 -21 30 -81 c69 -187 75 -192
258 -189 130 1 141 3 212 33 160 68 485 303 739 533 58 52 77 64 83 53 4 -8
19 -61 33 -118 74 -309 74 -658 0 -967 l-26 -110 -112 55 c-100 49 -112 53
-119 37 -3 -10 -18 -58 -33 -106 -27 -93 -116 -311 -139 -342 -12 -16 -14 -9
-20 61 -13 148 -69 428 -93 467 -3 6 -16 -34 -29 -89 -12 -55 -32 -133 -45
-174 l-22 -75 -10 35 c-28 100 -90 281 -111 325 l-24 50 -1 -40 c-1 -41 -16
-150 -27 -195 -5 -19 -13 0 -34 80 -16 58 -33 116 -38 130 -9 23 -9 22 -16
-15 -4 -22 -14 -71 -23 -108 l-15 -68 -35 103 c-37 113 -53 139 -53 92 -1 -16
-9 -69 -19 -119 -13 -66 -20 -85 -26 -70 -4 11 -26 67 -48 124 l-40 104 -93
-6 c-122 -8 -311 -47 -449 -92 -130 -43 -390 -169 -530 -257 -142 -90 -145
-107 -45 -255 127 -189 441 -573 468 -573 8 0 127 67 195 109 l39 24 -22 -44
c-12 -24 -38 -70 -57 -102 -19 -32 -33 -60 -31 -63 3 -2 44 21 93 51 48 31 90
53 93 51 2 -3 -16 -43 -42 -91 -25 -47 -44 -85 -40 -85 8 0 87 55 159 109 l60
46 -34 -60 c-19 -33 -49 -82 -67 -109 -18 -28 -31 -52 -29 -54 7 -7 181 94
269 156 79 55 79 55 72 26 -4 -16 -37 -91 -75 -166 -42 -88 -62 -138 -54 -138
23 0 155 70 223 118 36 25 91 71 123 101 34 33 57 48 57 39 0 -35 -53 -197
-92 -280 -23 -49 -39 -91 -36 -93 3 -3 44 -15 92 -27 47 -12 86 -25 86 -29 0
-11 -191 -183 -300 -270 -52 -42 -143 -109 -203 -148 -118 -79 -345 -207 -353
-199 -2 3 9 47 26 98 37 116 77 309 86 416 l7 80 -84 38 c-117 54 -221 91
-336 120 -208 52 -274 60 -523 61 l-236 0 -26 95 c-29 106 -107 310 -118 310
-10 0 -95 -185 -135 -294 -208 -576 -56 -1451 416 -2387 49 -97 89 -180 89
-184 0 -13 -487 3 -609 19 -573 77 -1097 282 -1555 608 -508 363 -929 892
-1163 1462 -52 126 -123 332 -123 356 0 22 142 257 236 391 130 184 282 367
446 535 l157 160 -112 44 c-173 68 -588 279 -630 320 -5 4 85 8 200 8 318 1
574 29 885 98 230 51 568 154 568 173 0 4 -17 15 -37 25 -186 88 -558 352
-795 563 -169 150 -169 151 -29 88 438 -196 943 -323 1413 -353 l117 -7 -132
135 c-264 268 -431 484 -622 800 -87 145 -287 541 -252 500 2 -3 51 -59 109
-125z m3133 -2281 c324 -94 617 -232 870 -410 133 -93 446 -230 685 -299 300
-86 532 -119 867 -119 138 -1 251 -2 250 -2 -9 -7 -258 -66 -314 -74 -89 -14
-367 1 -560 31 -397 60 -856 225 -1098 394 -171 119 -416 248 -600 315 -49 18
-104 39 -122 47 -26 11 -135 41 -328 92 l-30 7 42 22 c97 50 155 49 338 -4z"/>
<path d="M6339 6587 c-163 -75 -517 -272 -507 -282 2 -2 44 5 93 15 133 27
343 57 490 70 71 6 131 13 134 15 8 8 -72 235 -83 235 -6 0 -63 -24 -127 -53z"/>
</g>
</svg>
